<svg id="Layer_1" xmlns="http://www.w3.org/2000/svg" viewBox="0 0 1296 360"><style>#logo--text,.logo--sun{fill:#f4c544}.logo--cloud{fill:#fff}</style><path class="logo--cloud" d="M93.2 294.2c-3.2 0-6.4-.2-9.5-.7-26.8-4.6-45-29.6-40.9-56.3C46 216.5 61.5 200.1 82 196c1.2-.2 1.8-.7 2.2-1.9 9.5-31.9 42.2-50.1 74.4-41.9 18.2 4.7 31.4 15.7 39.9 32.5.4.8.8 1.2 1.7 1 2.7-.6 5.4-.3 8.1.1 18.7 3 30.8 18.3 31.8 34.4.1 1.2.5 1.5 1.5 1.3 3.1-.7 6.2-.2 9.2.4 13.9 3.1 23.5 11.4 27.7 25 4.2 13.5 1.2 25.9-8.5 36.2-7.3 7.8-16.6 11.2-27.3 11.2h-75.2c-24.9-.1-49.6-.1-74.3-.1z"/><path class="logo--sun" d="M289.9 232.5c-7.8-13.9-19.4-22.9-35.1-26.3-.7-.1-1.4-.2-1.8-1.2-7.7-20.1-22.2-31.9-43.5-35.4-.8-.1-1.4-.4-1.9-1.2-1.6-2.5-3.3-4.8-5.3-6.9-.7-.7-.7-1.3-.3-2.2 12-27.2 42.3-42.5 71.3-36 26.1 5.8 45.8 27.4 49 54 2 16-1.8 30.8-11.1 44-5 7.1-11.1 12.9-18.6 17.5-.7-2.1-1.6-4.3-2.7-6.3zm56.4-129.3c1.3 3.4.8 6.5-1.8 9.1-6.4 6.4-12.8 12.6-19.3 18.9-.9.9-2.1 1.7-3.4 2-3.6 1-7.1-.4-9.1-3.8-2-3.3-1.5-7.4 1.2-10.2 6.2-6.3 12.5-12.6 18.8-18.8 1.6-1.6 3.6-2.4 5.9-2.4 3.5.2 6.5 2.1 7.7 5.2zm-168-4.4c3.1-1.4 6.7-.8 9.1 1.7l18.9 18.9c2.1 2.1 2.8 4.7 2.2 7.6-.7 3.1-2.6 5.2-5.6 6.1-2.8.9-5.6.7-7.7-1.4-6.6-6.5-13-13-19.5-19.5-1.6-1.6-2.3-3.5-2.3-6 .1-3.3 1.7-5.9 4.9-7.4zm193 78c5.3.1 9.1 5 7.8 10.2-1 3.9-4 6.2-8.4 6.2H345c-.4 0-.7 0-1-.1-4.8-.5-7.7-3.9-7.5-8.7.2-4.4 3.7-7.6 8.3-7.7h13c4.5.1 9 0 13.5.1zM252 73.9c0-3.6 2.2-6.5 5.5-7.6 5.5-1.9 10.8 2 10.9 8 .1 4.1 0 8.2 0 12.2 0 4.6.1 9.1 0 13.7-.1 4.9-3.7 8.6-8.3 8.6-4.7 0-8.1-3.6-8.1-8.6V87.4c0-4.6-.1-9 0-13.5zm73.3 164.8l18.9 18.9c1.6 1.6 2.3 3.5 2.4 5.7.1 3.5-2 6.6-5.1 7.9-2.8 1.2-6.7.5-8.9-2.1-1.1-1.4-2.5-2.5-3.7-3.8-5-5-10-9.9-14.9-15-2.5-2.6-3-5.7-1.6-9 1.4-3.2 3.9-4.8 7.2-5 2.3.2 4.2.9 5.7 2.4z"/><path d="M364.2 273.5l11.8-1.6L431.7 128h18.5l54.7 143.8 11.7 1.6v13.8h-45.7v-13.8l12-2.1-10.5-29.3h-63.8l-10.8 29.3 12 2.1v13.8h-45.6v-13.7zm51.1-49.5h50.5l-24.7-68.4h-.7L415.3 224zm103.5 49.5l17.8-3.1v-84.5l-17.8-3.1v-13.9H556l1.4 15.4c3.8-5.6 8.7-10 14.7-13 6-3.1 12.9-4.6 20.8-4.6s14.6 1.8 20.3 5.5c5.6 3.6 9.9 9.1 12.7 16.4 3.7-6.7 8.6-12 14.8-16s13.3-5.9 21.4-5.9c12.1 0 21.7 4.1 28.7 12.4s10.5 20.7 10.5 37.4v53.9l17.8 3.1v13.8h-57.3v-13.8l17.8-3.1v-54.1c0-11.7-2-19.9-6-24.8-4-4.8-10-7.3-17.8-7.3-7.5 0-13.5 2.6-18.1 7.9-4.6 5.3-7.2 11.9-7.9 20v58.3l17.8 3.1v13.8h-57.2v-13.8l17.8-3.1v-54.1c0-11.1-2.1-19.2-6.2-24.3-4.1-5.1-10.1-7.7-17.9-7.7-6.6 0-12 1.4-16.2 4-4.2 2.7-7.5 6.5-9.7 11.4v70.8l17.8 3.1v13.8h-57.2v-13.9zm235-3.1h48.3l1.8-18.3h18.3v35.1h-94v-15.1l64-86.2h-43.3l-1.6 18.2h-18.4v-35.2h89.7v14.7l-64.8 86.8zm203-93.5h-15.2l-4-22.5c-3.5-3.4-7.8-6.2-12.9-8.4-5.1-2.2-11.2-3.3-18.3-3.3-16.6 0-29.3 6-38.2 18-8.9 12-13.3 27.2-13.3 45.7v2.5c0 18.4 4.4 33.7 13.1 45.8 8.7 12.1 20.8 18.1 36.3 18.1 7.2 0 13.8-1.1 19.7-3.4 5.9-2.3 10.5-5 13.7-8.3l4-22.5h15.2v28.3c-4.6 5.9-11.5 11.2-20.7 15.8-9.2 4.6-19.8 6.9-31.9 6.9-20.7 0-37.7-7.7-51-23-13.3-15.3-19.9-34.6-19.9-57.8v-2.3c0-23.3 6.5-42.6 19.6-57.9 13.1-15.3 30.2-22.9 51.3-22.9 12.1 0 22.8 2.4 31.9 7.1s16.1 10 20.7 15.8v28.3zm91.3 110.3c-.7-3.2-1.2-6.1-1.5-8.6-.4-2.6-.6-5.1-.8-7.7-4.2 5.3-9.4 9.8-15.6 13.3s-12.9 5.3-20 5.3c-12.3 0-21.7-3-28.1-9-6.4-6-9.6-14.5-9.6-25.4 0-11.2 4.5-19.9 13.6-26 9.1-6.1 21.5-9.1 37.4-9.1h22.2v-13.8c0-6.9-2.2-12.4-6.6-16.5s-10.5-6.1-18.3-6.1c-5.4 0-10.2.7-14.3 2.1-4.1 1.4-7.5 3.3-10 5.7l-2.3 12.5h-16.6v-23c5.4-4.3 11.9-7.7 19.6-10.3 7.7-2.6 16-3.9 24.9-3.9 13.4 0 24.3 3.4 32.6 10.3s12.5 16.7 12.5 29.4v57c0 1.5 0 3 .1 4.5 0 1.5.1 2.9.3 4.4l8.8 1.2v13.8h-28.3zm-34.7-15.7c7.1 0 13.7-1.7 19.6-5.1 5.9-3.4 10.1-7.5 12.7-12.4v-19.5h-23c-8.8 0-15.8 2-20.9 6.1-5.1 4.1-7.7 9-7.7 14.9 0 5.2 1.6 9.1 4.8 11.9 3.1 2.7 8 4.1 14.5 4.1zm160.2-65.4h-16.2l-3.5-14.2c-2.6-2.5-5.9-4.5-9.9-6s-8.5-2.2-13.5-2.2c-7.7 0-13.3 1.7-17.1 5-3.7 3.4-5.6 7.4-5.6 12.1 0 4.7 1.6 8.4 4.9 11 3.3 2.7 10 5.1 20 7.2 14.9 3.2 26.1 7.6 33.4 13.1 7.3 5.5 10.9 12.9 10.9 22.1 0 10.5-4.2 19-12.7 25.5s-19.6 9.7-33.3 9.7c-9 0-17-1-24.2-3.1-7.1-2.1-13.5-5.1-19.1-9l-.1-27h16.2l4 15.9c2.5 2.3 5.9 3.9 10.1 4.9 4.3 1 8.6 1.5 13.1 1.5 7.7 0 13.7-1.5 18-4.6 4.3-3.1 6.5-7.2 6.5-12.2 0-4.7-1.8-8.6-5.4-11.7s-10.4-5.7-20.5-8c-14.4-3.1-25.2-7.4-32.5-12.8-7.3-5.4-10.9-12.7-10.9-21.9 0-9.6 4.1-17.8 12.3-24.6 8.2-6.8 18.9-10.2 32-10.2 9 0 17 1.2 24.2 3.5 7.1 2.3 13.1 5.6 17.8 9.7l1.1 26.3zm52.3-65.8v28.5h22.4v16h-22.4v71.9c0 5.5 1.1 9.4 3.4 11.7 2.3 2.3 5.3 3.4 9.1 3.4 1.9 0 4-.2 6.4-.5 2.4-.3 4.4-.7 6-1l3 14.8c-2 1.3-5 2.4-9 3.2-3.9.8-7.9 1.3-11.8 1.3-8.8 0-15.7-2.6-20.9-7.9-5.2-5.3-7.8-13.6-7.8-24.9v-71.9h-18.7v-16h18.7v-28.5h21.6z" id="logo--text"/></svg>