<svg xmlns="http://www.w3.org/2000/svg" viewBox="0 0 1235.8 839.8"><path d="M592.4 765.7c-122.5 0-245 .6-367.5-.2-72.1-.5-126.2-33.5-159.2-97.7-51.1-99.3 7.6-223 116.5-248 17-3.9 34-6.1 51.5-4 6.5.8 6.5.5 7.2-6 7.6-80.6 64.2-144.8 143.4-162.5 16.3-3.6 32.9-5 49.6-3 4.4.5 6.4-.7 8.3-4.6 36.6-73 93.4-123.2 170.5-150 38.7-13.5 78.8-18.3 119.5-14.5 123 11.7 222.2 93.4 258.2 211.9.9 3 2.1 4.4 5.5 5.2 72.4 15.8 127.3 55.7 163.5 120.4 23.1 41.3 33 86.1 28.1 133.2-10.3 98.4-62.2 166.3-153.3 204-28 11.6-57.7 15.7-87.9 15.7-118 .1-235.9.1-353.9.1z" fill="#C7C7C7"/></svg>