<svg xmlns="http://www.w3.org/2000/svg" viewBox="0 0 1235.8 839.8"><g fill="#A4A4A4"><path d="M394.2 698.4H163.3c-41.3 0-74.5-16.3-97.3-51-43.8-66.8-4.6-156.6 74-170.6 8.7-1.6 17.5-2.1 26.4-1.7 3.4.1 4.2-1.2 4.5-4.2 5.2-55.7 48.4-99.5 104.1-105.6 6.3-.7 12.7-.5 19-.4 2.8 0 4.1-1 5.3-3.4 28.9-56.4 74.4-91.6 136.7-102.9 96.3-17.5 186.5 40 213.9 130.1 1.2 4 2.7 6.2 7.2 7.2 61 14.3 99.9 52.5 116.5 112.3C796.9 592.3 742 678.1 656 695.6c-11.3 2.3-22.8 2.9-34.3 2.9-75.9-.1-151.7-.1-227.5-.1z"/><path d="M779.1 696.8c15.5-15.4 27.9-31.6 37.6-49.8 20.9-39 29.5-80.6 24.2-124.4-10.4-85.7-56.6-144.7-135.5-178.7-3.1-1.3-5.1-3-6.6-6.1-19.1-40.7-47-74-83.9-99.7-3.5-2.4-3.7-3.7-1-7 39.9-48.5 90.5-78.2 152.8-87.2 115.2-16.7 227.4 55.5 260.2 167.4 1.2 4 3.1 5.8 7.1 6.7 74.5 15.1 134.4 75.3 150 149 21.8 103.2-46 205.4-150.5 226.7-12.8 2.6-25.7 3.6-38.7 3.6h-210c-1.6-.3-3-.4-5.7-.5z"/></g></svg>