<svg xmlns="http://www.w3.org/2000/svg" viewBox="0 0 1235.5 1224"><path d="M587.4 714.1c-117.7 0-235.3.7-353-.2-72.8-.6-125.9-35.4-155.8-101.3-44.2-97.6 12.1-213.4 121-236 14.2-2.9 28.6-4.5 43.2-2.5 7.1 1 6.9.6 7.5-6.5 3.2-35.8 16.1-67.8 38.8-95.6 28.5-35 65.3-56.1 109.9-63.4 13-2.1 26.1-3.2 39.3-1.2 3.5.5 5.3-.7 6.9-3.9 39.4-77.7 101-128.4 184.8-151.9 34.7-9.7 70.1-11.8 105.9-7.7 68.4 8 126.6 36.9 174.5 86.2 32.5 33.4 55.2 72.8 68.5 117.4 1.3 4.3 3.2 5.8 7.5 6.8 93.1 22.1 155.3 78.5 178 171.7 21.2 87.1-2.5 164-67.7 226.3-35.5 34-78.6 53.5-127.5 59.7-10.4 1.3-20.9 1.9-31.4 1.9-116.7.2-233.6.2-350.4.2zm-72.2 364.8c14.1 8.1 27.4 15.7 40.6 23.3 6.5 3.7 10.7 9.1 11.3 16.6.7 8-2.9 14.2-9.5 18.5-6.5 4.3-13.4 4.7-20.3.8-12.6-7.1-25.1-14.3-37.7-21.5-4.8-2.7-4.8-2.7-4.8 3 0 13.5.1 27 0 40.5-.1 12.4-8.7 21.8-19.9 22-10.1.2-19.1-7.2-20.7-17.3-1.2-7.4-.4-15-.5-22.5-.1-9.2-.1-18.3-.1-27.5 0-.3-.2-.6-.3-1.1-1.8-.6-3 .9-4.3 1.6-12.6 7.1-25.1 14.3-37.7 21.6-9.9 5.7-21.1 2.5-27.4-7.9-5.7-9.5-2.9-21.3 6.7-26.9 12.3-7.2 24.8-14.2 37.2-21.3 1.6-.9 3.1-1.9 5.2-3.2-11-6.3-21.6-12.4-32.2-18.5-3.5-2-7-3.8-10.3-6-9.2-6.2-11.9-17.7-6.5-26.7 6-10 17.6-13.2 27.6-7.6 12.2 6.8 24.3 13.8 36.4 20.8 1.5.9 3.1 1.7 5.6 3v-12c0-11.7-.2-23.3.1-35 .2-11 7.8-19.4 18.3-21.1 8.3-1.3 17.8 4.7 21.2 13.4 1.3 3.2 1.5 6.5 1.5 9.8 0 13.7.1 27.3 0 41 0 3.9.4 5.2 4.5 2.8 12.4-7.4 25.1-14.4 37.6-21.6 10-5.8 21.2-2.8 27.5 7.5 5.9 9.7 3.2 21.5-6.7 27.3-13.7 7.9-27.6 15.7-42.4 24.2zm338-208.8c-14.2-8.1-27.5-15.6-40.7-23.3-9.5-5.5-13.5-15.3-10.2-24.5 4.4-12.3 18-17.5 29.3-11.2 12.6 7.1 25.2 14.2 37.7 21.6 3.6 2.1 4.4 1.4 4.4-2.6-.1-13.8-.2-27.7 0-41.5.1-11.7 8.2-20.9 18.7-21.6 12.4-.9 22.2 8.2 22.4 21.4.2 13.8 0 27.7.1 41.5 0 1.8-.5 3.6.6 5.4 1.9.2 3.1-1.1 4.5-1.9 11.9-6.7 23.7-13.5 35.6-20.3 11.2-6.4 22.9-3.6 28.9 6.7 6.1 10.6 2.8 21.8-8.6 28.3l-35.1 20.1c-1.5.9-3.4 1.4-4.7 3.5 9.4 5.4 18.7 10.7 28 16.1 4 2.3 8.1 4.6 12.1 6.9 10.8 6.5 14.1 17.8 8.2 28.2-5.8 10.3-16.8 13.2-28 7.1-12.4-6.8-24.6-14-36.9-21-4.6-2.6-4.6-2.6-4.7 2.7 0 13.8.1 27.7-.1 41.5-.2 10.6-7.2 19.1-16.7 20.9-9.2 1.7-18.5-3.1-22.5-11.9-1.6-3.4-1.9-7-1.9-10.7v-41c0-5.3-.1-5.3-4.8-2.6-12.4 7.1-24.9 14.1-37.3 21.3-10.2 5.9-21.4 2.8-27.7-7.9-5.7-9.6-2.7-21.4 7.3-27.1 13.7-8 27.4-15.7 42.1-24.1zm-547.3 1.2c-4.7-2.7-8.7-5-12.7-7.3-9.5-5.5-19.1-10.8-28.6-16.4-8.1-4.8-11.8-12.9-10.3-21.6 1.4-7.9 8.8-14.8 17.5-16.4 4.7-.8 8.9.5 12.9 2.8 11.9 6.8 23.7 13.5 35.5 20.3 1.7 1 3.5 1.9 5.4 2.9 1.2-1.7.7-3.3.7-4.9 0-14-.1-28 .1-42 .1-10.3 8.1-19.4 17.7-20.6 9.8-1.3 19.2 4.9 22.4 14.5.9 2.8.8 5.6.8 8.4v45.5c2.7.1 4.3-1.5 6.1-2.5 11.7-6.6 23.4-13.4 35.1-20 10.8-6.1 22.4-3.3 28.5 7 5.9 9.8 2.6 21.6-8.1 27.9-12.8 7.5-25.7 14.7-38.5 22.1-.7.4-1.3.9-2.3 1.6 13.7 7.8 27.1 15.5 40.5 23.2 10.8 6.2 14 15.9 8.9 27.1-5.1 11.2-17.2 14.5-29.2 7.9C396.2 924 384.2 917 372 910c-4.6-2.6-4.6-2.6-4.6 2.6 0 13.7-.4 27.3.1 41 .4 12-9.1 21.9-20.4 22.2-11.4.3-20.7-9.9-20.7-22.4-.1-15.3 0-30.6 0-45.8-1.8-.9-2.8.3-3.9.9-12.4 7.1-24.9 14.1-37.3 21.3-10.4 6-22 3.5-27.8-6.1-6.3-10.3-3.5-22.3 6.9-28.5 12-7.2 24.2-13.9 36.3-20.9 1.5-.8 3-1.6 5.3-3zm502.9 207.1c.9 2.1 2.9 2.5 4.4 3.4 12.1 7 24.3 13.8 36.4 20.9 7.6 4.5 11.7 13.1 10.3 20.6-1.7 9-8.7 15.6-17.9 17.2-4.7.8-8.9-.6-12.9-2.9-13.6-7.8-27.1-15.5-40.7-23.2-1.7 1.3-1 3-1 4.3-.1 13.8 0 27.7-.1 41.5-.1 12.6-8.8 21.9-20.4 21.9-11.5 0-20.5-9.5-20.6-21.9-.1-15.5 0-31 0-46.5-2.3-.3-3.6 1.2-5.1 2-12 6.8-24 13.7-36 20.5-10.8 6.1-22.4 3.1-28.5-7.2-5.8-9.7-2.3-21.6 8.3-27.8 11.8-6.9 23.7-13.5 35.5-20.3 1.6-.9 3.1-1.9 5.2-3.2-3.7-2.2-6.9-4-10.2-5.9-10.4-6-20.9-11.8-31.2-17.9-10-6-13.2-17.4-7.8-27.2 5.7-10.7 16.8-13.8 28.2-7.6 9.9 5.4 19.7 11.2 29.5 16.8 3.7 2.1 7.5 4.2 11.3 6.4 1.3-2 .8-3.8.8-5.5.1-13.7-.1-27.3.1-41 .1-10.8 7.8-19.4 18.3-21.1 8.7-1.4 18.3 5.1 21.6 14.3 1 2.8 1 5.6 1 8.4 0 14 .1 28 0 42 0 4.1.9 4.5 4.3 2.5 12.5-7.3 25.1-14.4 37.7-21.6 10.5-6.1 21.8-3 28.1 7.9 5.7 9.6 2.5 21.3-7.6 27.1-13.5 7.5-27.3 15.3-41 23.1zm-208.6-242v-46.3c0-12.5 8.8-21.9 20.3-21.9s20.5 9.5 20.6 21.8v42c0 1.6-.4 3.3.7 5.2 10.3-5.9 20.5-11.7 30.7-17.5 3.5-2 6.9-4 10.4-5.9 10.3-5.7 22.1-2.5 28 7.7 5.5 9.4 2.3 21.3-7.7 27.3-12.1 7.2-24.5 14.1-36.8 21.1-1.4.8-2.8 1.7-4.7 2.8 13.9 7.9 27.3 15.6 40.6 23.3 7.3 4.3 11.5 10.5 11.1 19.2-.8 15.7-16.2 23.8-30.7 16-9.4-5-18.5-10.5-27.8-15.8-4.3-2.4-8.6-4.9-13.1-7.4-1.1 1.9-.7 3.5-.7 5.1v41c0 12.1-9.5 22-20.7 21.9-11.2-.1-20.2-9.8-20.2-21.7v-46.8c-1.6-.7-2.5.3-3.5.8-12.7 7.2-25.4 14.5-38.1 21.8-10.1 5.9-21.6 3.4-27.5-6-6.3-10.1-4-22 6.1-28.3 7.6-4.8 15.5-9 23.3-13.5 6.1-3.5 12.1-6.9 18.1-10.4-.4-1.9-2.1-2.2-3.3-2.9-12.3-7.1-24.5-14-36.8-21.1-10.8-6.2-14.1-17.6-8.1-28.1 5.7-9.9 17.7-13 28.1-7.1 13.8 7.6 27.3 15.4 41.7 23.7z" fill="#4A5B72"/></svg>