<svg xmlns="http://www.w3.org/2000/svg" viewBox="0 0 1235.5 1224"><path d="M617.8 914.6c-167.6-1.2-303.1-137.2-301.9-303.2 1.2-167.5 137.4-303.1 303.4-301.8 167.4 1.3 302.5 137 301.7 303-1 167.3-137.2 303.1-303.2 302zM150.4 651.9c-21.2 0-42.3.2-63.5-.1-19.7-.2-37-15.2-39.4-33.8-2.7-20.3 9.5-38.8 29.2-44.2 3.2-.9 6.5-1.5 9.8-1.5 42.7-.1 85.3-.2 128 0 19.6.1 36.9 15.9 38.8 34.4 2.2 20.8-9.5 38.5-29.1 43.7-4 1.1-8.2 1.5-12.4 1.5-20.4-.1-40.9 0-61.4 0zm428.2-507.8c0-21.2-.1-42.3 0-63.5.2-19.9 15.5-37.4 34.2-39.5 20.6-2.3 38.7 9.9 43.9 29.6.9 3.3 1.4 6.9 1.4 10.3.1 42 .1 84 0 126 0 17.7-11.1 32.8-27.6 38.3-15.9 5.3-33.5-.1-43.8-13.5-5.7-7.4-8.1-15.9-8.1-25.2-.1-20.8 0-41.6 0-62.5zm79.6 936c0 20.8.1 41.7 0 62.5-.1 24.1-18.9 41.8-42.9 40.5-19.6-1-36.4-18.3-36.6-38.7-.3-42.8-.3-85.6 0-128.5.2-21.9 18.3-39.1 39.9-39 22.2.1 39.3 17 39.6 39.7.2 21.1 0 42.3 0 63.5zm427.2-428.2c-21.2 0-42.3.3-63.5-.1-16.1-.3-28.5-7.8-35.8-22.2-7.1-14-5.7-27.8 3.3-40.5 7.7-10.8 18.7-16.6 32-16.7 42.5-.2 84.9-.2 127.4 0 22.1.1 39.5 18.1 39.5 40 0 21.6-17.7 39.3-40 39.5-20.9.1-41.9 0-62.9 0zM903.5 366.1c-15.9-.1-29.7-9.4-35.9-25-6.4-15.9-3.1-30.2 8.8-42.2 25-25.4 50.3-50.5 75.6-75.7 4.8-4.8 9.6-9.7 14.5-14.5 16-15.6 39.5-15.6 55.1 0 15.7 15.6 16.1 39.2.4 55.1-30.7 31.1-61.6 61.9-92.5 92.6-7.2 7-16.1 9.7-26 9.7zm-570.3 0c-11-.3-20.2-4.3-27.6-11.7-30.3-30-60.5-60.1-90.5-90.5-15.8-16-15.5-39.4 0-55.1 15.6-15.6 39.1-16 55.1-.3 30.5 30.1 60.8 60.3 90.8 90.9 11.7 11.9 14.8 26.5 8 41.9-6.8 15.5-18.7 24.4-35.8 24.8zm657.4 661.1c-7.2-.1-16.4-4.2-23.9-11.6-30.4-30.2-60.7-60.4-90.8-90.9-15.5-15.7-15-39.2.4-54.7s39-16.1 54.7-.6c30.6 30.2 61 60.6 91.2 91.2 11.7 11.9 14.5 26.3 8.1 42-6.4 15.4-20.3 24.6-39.7 24.6zm-750 0c-14.4-1.1-27-8.9-33.8-24.2-6.8-15.2-4.3-29.9 7.2-41.6 30.5-31.2 61.4-62.1 92.6-92.6 15.3-14.9 39-14 53.6.9 15.8 16.2 16.3 39.1.8 55.1-15.4 15.9-31.3 31.4-47 47.1-14.6 14.6-29.3 29.2-43.8 43.9-7.6 7.6-16.6 11.4-29.6 11.4z" fill="#F4C544"/></svg>